<svg xmlns="http://www.w3.org/2000/svg" version="1.1" width="90" height="58" viewBox="0 0 179 115">
<path d="M0 0 C7.07915436 6.13669508 13.63931057 13.17054314 17.26953125 21.92578125 C17.26953125 22.58578125 17.26953125 23.24578125 17.26953125 23.92578125 C12.51278831 23.41613022 8.0458101 22.69285338 3.41015625 21.4609375 C1.00157905 20.8587932 -1.41659004 20.38946029 -3.85546875 19.92578125 C-13.66150323 17.99474677 -13.66150323 17.99474677 -16.73046875 14.92578125 C-20.34800978 14.54498746 -22.61448087 15.07926991 -25.73046875 16.92578125 C-25.73046875 15.93578125 -25.73046875 14.94578125 -25.73046875 13.92578125 C-26.45234375 14.73015625 -27.17421875 15.53453125 -27.91796875 16.36328125 C-30.75562564 18.94870197 -32.00213022 19.60620938 -35.73046875 19.92578125 C-35.40046875 18.60578125 -35.07046875 17.28578125 -34.73046875 15.92578125 C-35.30796875 16.25578125 -35.88546875 16.58578125 -36.48046875 16.92578125 C-38.73046875 17.92578125 -38.73046875 17.92578125 -42.73046875 17.92578125 C-43.22546875 16.93578125 -43.22546875 16.93578125 -43.73046875 15.92578125 C-44.72046875 16.58578125 -45.71046875 17.24578125 -46.73046875 17.92578125 C-48.05046875 17.92578125 -49.37046875 17.92578125 -50.73046875 17.92578125 C-50.73046875 17.26578125 -50.73046875 16.60578125 -50.73046875 15.92578125 C-54.83254632 17.70333901 -54.83254632 17.70333901 -58.10546875 20.61328125 C-60.45589053 22.51169884 -62.54416128 21.89480681 -65.43994141 21.84692383 C-69.32649072 21.9807285 -72.97771329 22.96320273 -76.73046875 23.92578125 C-77.50519531 24.1165625 -78.27992187 24.30734375 -79.078125 24.50390625 C-80.96429274 24.96962668 -82.84769369 25.44652942 -84.73046875 25.92578125 C-83.48917883 15.32826859 -75.81723497 6.46936279 -67.73046875 -0.07421875 C-46.91085089 -14.29431659 -20.71225245 -15.73420036 0 0 Z " fill="#ED7B33" transform="translate(124.73046875,13.07421875)"/>
<path d="M0 0 C2.64943326 0.70033158 2.64943326 0.70033158 4.6875 -0.5625 C8.86894011 -0.95697548 10.99696048 -1.01285186 14.5625 1.3125 C17.62171259 4.37171259 17.81481609 5.98625919 17.8203125 10.19140625 C17.82224609 11.59616211 17.82224609 11.59616211 17.82421875 13.02929688 C17.82035156 14.00962891 17.81648438 14.98996094 17.8125 16 C17.81830078 17.47629883 17.81830078 17.47629883 17.82421875 18.98242188 C17.82292969 19.91763672 17.82164063 20.85285156 17.8203125 21.81640625 C17.81918457 22.6782251 17.81805664 23.54004395 17.81689453 24.42797852 C17.6875 26.4375 17.6875 26.4375 16.6875 27.4375 C14.1875 27.5625 14.1875 27.5625 11.6875 27.4375 C10.13799732 25.88799732 10.47094807 24.33759406 10.37109375 22.18359375 C10.32919922 21.32958984 10.28730469 20.47558594 10.24414062 19.59570312 C10.20482422 18.69787109 10.16550781 17.80003906 10.125 16.875 C10.08181641 15.97330078 10.03863281 15.07160156 9.99414062 14.14257812 C9.88771858 11.90771515 9.78570012 9.67273692 9.6875 7.4375 C6.21602158 6.68792843 6.21602158 6.68792843 2.6875 6.4375 C2.69535522 7.33843384 2.69535522 7.33843384 2.70336914 8.25756836 C2.72408014 10.96336838 2.73714125 13.66915177 2.75 16.375 C2.75837891 17.32052734 2.76675781 18.26605469 2.77539062 19.24023438 C2.78022461 20.58891602 2.78022461 20.58891602 2.78515625 21.96484375 C2.79301147 23.21382446 2.79301147 23.21382446 2.80102539 24.48803711 C2.6875 26.4375 2.6875 26.4375 1.6875 27.4375 C-0.2925 27.4375 -2.2725 27.4375 -4.3125 27.4375 C-4.9725 20.5075 -5.6325 13.5775 -6.3125 6.4375 C-8.2925 6.7675 -10.2725 7.0975 -12.3125 7.4375 C-12.6425 14.0375 -12.9725 20.6375 -13.3125 27.4375 C-15.2925 27.4375 -17.2725 27.4375 -19.3125 27.4375 C-20.3125 26.4375 -20.3125 26.4375 -20.42602539 23.93725586 C-20.42078857 22.85323486 -20.41555176 21.76921387 -20.41015625 20.65234375 C-20.40693359 19.48251953 -20.40371094 18.31269531 -20.40039062 17.10742188 C-20.39201172 15.87572266 -20.38363281 14.64402344 -20.375 13.375 C-20.37048828 12.13943359 -20.36597656 10.90386719 -20.36132812 9.63085938 C-20.34949608 6.56635883 -20.33301173 3.50195279 -20.3125 0.4375 C-18.29427083 0.47005208 -16.27604167 0.50260417 -14.2578125 0.53515625 C-0.82085199 -0.13938996 -0.82085199 -0.13938996 0 0 Z " fill="#1D1310" transform="translate(100.3125,54.5625)"/>
<path d="M0 0 C2.64 0 5.28 0 8 0 C8.33 4.62 8.66 9.24 9 14 C9.6290625 12.989375 10.258125 11.97875 10.90625 10.9375 C11.76937886 9.62404305 12.63404373 8.31159458 13.5 7 C14.11488281 5.99839844 14.11488281 5.99839844 14.7421875 4.9765625 C17.94817653 0.21615455 17.94817653 0.21615455 21.12890625 -0.4375 C23.34375 -0.4375 23.34375 -0.4375 27 0 C25.37815499 3.58513106 23.20743761 6.58992323 20.875 9.75 C20.15054687 10.73484375 19.42609375 11.7196875 18.6796875 12.734375 C18.12539063 13.48203125 17.57109375 14.2296875 17 15 C18.2838884 17.68084443 19.68842577 20.12575412 21.3828125 22.56640625 C21.82753906 23.21673828 22.27226562 23.86707031 22.73046875 24.53710938 C23.66449643 25.89367338 24.60203464 27.24782662 25.54296875 28.59960938 C25.98511719 29.24865234 26.42726563 29.89769531 26.8828125 30.56640625 C27.28902832 31.15365479 27.69524414 31.74090332 28.11376953 32.34594727 C29 34 29 34 29 37 C22.5848564 37.49347258 22.5848564 37.49347258 20 35.3125 C17.9020318 32.88672427 16.060799 30.39655238 14.25 27.75 C13.63640625 26.85796875 13.0228125 25.9659375 12.390625 25.046875 C11.93171875 24.37140625 11.4728125 23.6959375 11 23 C8.41331224 25.58668776 8.65770694 26.96891021 8.4375 30.5625 C8.09722222 35.90277778 8.09722222 35.90277778 7 37 C4 37.125 4 37.125 1 37 C0 36 0 36 -0.11352539 32.58178711 C-0.11336628 31.06363012 -0.10767226 29.54546771 -0.09765625 28.02734375 C-0.0962413 27.22970108 -0.09482635 26.43205841 -0.09336853 25.61024475 C-0.08775316 23.05262565 -0.07519812 20.49509282 -0.0625 17.9375 C-0.05748698 16.20768355 -0.05292373 14.47786574 -0.04882812 12.74804688 C-0.03777875 8.49866447 -0.02050386 4.24934688 0 0 Z " fill="#1E1412" transform="translate(4,45)"/>
<path d="M0 0 C7.02973486 0.02489871 10.29914895 2.92389564 15.53515625 7.29296875 C26.31861502 15.27032301 40.67704181 16.63738055 53.6875 15.625 C59.2598475 14.4107452 64.56130752 12.9406383 69.43359375 9.92578125 C70.17738281 9.49652344 70.92117187 9.06726563 71.6875 8.625 C72.6775 9.12 72.6775 9.12 73.6875 9.625 C62.81054578 20.01853403 49.47854643 23.46831519 34.6875 23.625 C22.10005979 22.83828499 11.33891165 18.70525162 1.6875 10.625 C0.759375 9.944375 -0.16875 9.26375 -1.125 8.5625 C-3.49256442 6.46551437 -4.84300592 4.40930457 -6.3125 1.625 C-4.56619546 -0.12130454 -2.38746652 0.16721555 0 0 Z " fill="#ED7729" transform="translate(53.3125,89.375)"/>
<path d="M0 0 C2.8900935 1.20420562 4.34761073 2.03661513 6.08984375 4.609375 C7.38492236 8.01104071 7.42892541 11.40325991 7.5625 15 C7.73754096 19.11160043 7.95111225 23.00423713 9 27 C8 28 8 28 5.6875 28.125 C3 28 3 28 0.8125 27.4375 C-1.08432232 26.77357897 -1.08432232 26.77357897 -3 28 C-10.72093023 28.42894057 -10.72093023 28.42894057 -14 26 C-16.20194062 23.2737878 -16 21.57367649 -16 18 C-15.4525917 14.62116948 -15.06937736 14.0659931 -12.4375 11.5625 C-8.41917407 9.73598821 -5.38174537 9.30218934 -1 9 C-1.33 8.34 -1.66 7.68 -2 7 C-5.3 7 -8.6 7 -12 7 C-12.33 5.35 -12.66 3.7 -13 2 C-8.74557709 -0.83628194 -4.99310819 -0.51845373 0 0 Z M-7.9375 16.25 C-9.23938689 17.97701922 -9.23938689 17.97701922 -8.6875 20.1875 C-8.460625 20.785625 -8.23375 21.38375 -8 22 C-5.08347826 22.16681109 -5.08347826 22.16681109 -2 22 C0.28728734 20.16116119 0.28728734 20.16116119 0.125 17.375 C0.08375 16.59125 0.0425 15.8075 0 15 C-4.18966713 14.65314472 -4.18966713 14.65314472 -7.9375 16.25 Z " fill="#170E0C" transform="translate(138,54)"/>
<path d="M0 0 C0.14319574 4.62644114 0.28558939 9.25290601 0.42724609 13.87939453 C0.47552912 15.45264347 0.52402972 17.02588575 0.57275391 18.59912109 C0.64282785 20.86293847 0.71211439 23.1267788 0.78125 25.390625 C0.80312378 26.09181458 0.82499756 26.79300415 0.84753418 27.51544189 C0.94346492 30.67970866 1 33.83373639 1 37 C0 38 0 38 -2.375 38.3125 C-5 38 -5 38 -6.64575195 36.45605469 C-8.48667795 33.11736431 -8.37487648 30.09983304 -8.29296875 26.390625 C-8.28872391 25.66381531 -8.28447906 24.93700562 -8.28010559 24.18817139 C-8.2633613 21.87506496 -8.22571885 19.56284145 -8.1875 17.25 C-8.17244758 15.67839803 -8.15876015 14.10678236 -8.14648438 12.53515625 C-8.11347195 8.68976585 -8.06172056 4.84503244 -8 1 C-5.29120665 -0.35439668 -2.99066732 -0.06501451 0 0 Z " fill="#140D0B" transform="translate(59,44)"/>
<path d="M0 0 C0.66 0.33 1.32 0.66 2 1 C2.01981934 1.94842773 2.03963867 2.89685547 2.06005859 3.87402344 C2.13825761 7.40032364 2.22495366 10.92620361 2.31738281 14.45214844 C2.35561266 15.97680658 2.390476 17.50155307 2.421875 19.02636719 C2.46765662 21.22102381 2.52562766 23.4150754 2.5859375 25.609375 C2.59748871 26.2886908 2.60903992 26.96800659 2.62094116 27.66790771 C2.73234916 31.2583736 3.05958376 33.93618488 5 37 C1.77626323 39.14915785 0.73296326 39.38286803 -3 39 C-5 37 -5 37 -5.22705078 33.56005859 C-5.22673369 32.08948021 -5.21540987 30.61887858 -5.1953125 29.1484375 C-5.1924826 28.37440582 -5.18965271 27.60037415 -5.18673706 26.80288696 C-5.17552754 24.32676843 -5.15042203 21.8510095 -5.125 19.375 C-5.11497118 17.69792188 -5.10584516 16.02083811 -5.09765625 14.34375 C-5.07558574 10.22902777 -5.04105102 6.11457489 -5 2 C-2.625 0.9375 -2.625 0.9375 0 0 Z " fill="#130D0B" transform="translate(172,43)"/>
<path d="M0 0 C0.66 0.33 1.32 0.66 2 1 C2.01981934 1.94842773 2.03963867 2.89685547 2.06005859 3.87402344 C2.13825761 7.40032364 2.22495366 10.92620361 2.31738281 14.45214844 C2.35561266 15.97680658 2.390476 17.50155307 2.421875 19.02636719 C2.46765662 21.22102381 2.52562766 23.4150754 2.5859375 25.609375 C2.59748871 26.2886908 2.60903992 26.96800659 2.62094116 27.66790771 C2.73234916 31.2583736 3.05958376 33.93618488 5 37 C1.77626323 39.14915785 0.73296326 39.38286803 -3 39 C-5 37 -5 37 -5.22705078 33.56005859 C-5.22673369 32.08948021 -5.21540987 30.61887858 -5.1953125 29.1484375 C-5.1924826 28.37440582 -5.18965271 27.60037415 -5.18673706 26.80288696 C-5.17552754 24.32676843 -5.15042203 21.8510095 -5.125 19.375 C-5.11497118 17.69792188 -5.10584516 16.02083811 -5.09765625 14.34375 C-5.07558574 10.22902777 -5.04105102 6.11457489 -5 2 C-2.625 0.9375 -2.625 0.9375 0 0 Z " fill="#150D0B" transform="translate(157,43)"/>
<path d="M0 0 C0.74216766 -0.00700928 1.48433533 -0.01401855 2.24899292 -0.02124023 C14.09551364 -0.06368187 23.13821716 1.46668775 32.0625 9.75 C28.51919189 10.9311027 27.17214447 10.48184189 23.625 9.5 C22.67753906 9.24734375 21.73007813 8.9946875 20.75390625 8.734375 C18.05035138 7.74555667 16.31282312 6.50457159 14.0625 4.75 C10.43423105 4.29646638 8.18901057 4.89725299 5.0625 6.75 C5.0625 5.76 5.0625 4.77 5.0625 3.75 C4.340625 4.554375 3.61875 5.35875 2.875 6.1875 C0.03734311 8.77292072 -1.20916147 9.43042813 -4.9375 9.75 C-4.6075 8.43 -4.2775 7.11 -3.9375 5.75 C-4.515 6.08 -5.0925 6.41 -5.6875 6.75 C-7.9375 7.75 -7.9375 7.75 -11.9375 7.75 C-12.2675 7.09 -12.5975 6.43 -12.9375 5.75 C-13.9275 6.41 -14.9175 7.07 -15.9375 7.75 C-17.2575 7.75 -18.5775 7.75 -19.9375 7.75 C-19.9375 7.09 -19.9375 6.43 -19.9375 5.75 C-23.44755335 7.3880249 -26.39293849 8.78134491 -28.9375 11.75 C-29.5975 11.09 -30.2575 10.43 -30.9375 9.75 C-29.56560346 8.80796437 -28.18980387 7.87161203 -26.8125 6.9375 C-26.04679687 6.41542969 -25.28109375 5.89335937 -24.4921875 5.35546875 C-16.40746474 0.27470261 -9.27357029 0.03953155 0 0 Z " fill="#EB6E1D" transform="translate(93.9375,23.25)"/>
<path d="M0 0 C0.66 0.33 1.32 0.66 2 1 C2.02886537 5.31248609 2.04675255 9.62494762 2.0625 13.9375 C2.07087891 15.16919922 2.07925781 16.40089844 2.08789062 17.66992188 C2.09111328 18.83974609 2.09433594 20.00957031 2.09765625 21.21484375 C2.10289307 22.29886475 2.10812988 23.38288574 2.11352539 24.49975586 C2 27 2 27 1 28 C-1.5 28.125 -1.5 28.125 -4 28 C-5 27 -5 27 -5.11352539 24.95874023 C-5.10828857 24.08419189 -5.10305176 23.20964355 -5.09765625 22.30859375 C-5.09282227 20.89223633 -5.09282227 20.89223633 -5.08789062 19.44726562 C-5.07951172 18.45404297 -5.07113281 17.46082031 -5.0625 16.4375 C-5.05798828 15.44041016 -5.05347656 14.44332031 -5.04882812 13.41601562 C-5.03700007 10.94395151 -5.02051849 8.47200482 -5 6 C-6.32 6 -7.64 6 -9 6 C-9 4.35 -9 2.7 -9 1 C-5.77390955 -0.07536348 -3.37822416 -0.14375422 0 0 Z " fill="#1F1410" transform="translate(72,54)"/>
<path d="M0 0 C0.66 0.33 1.32 0.66 2 1 C2.02886537 5.31248609 2.04675255 9.62494762 2.0625 13.9375 C2.07087891 15.16919922 2.07925781 16.40089844 2.08789062 17.66992188 C2.09111328 18.83974609 2.09433594 20.00957031 2.09765625 21.21484375 C2.10289307 22.29886475 2.10812988 23.38288574 2.11352539 24.49975586 C2 27 2 27 1 28 C-1.5 28.125 -1.5 28.125 -4 28 C-5 27 -5 27 -5.11352539 24.95874023 C-5.10828857 24.08419189 -5.10305176 23.20964355 -5.09765625 22.30859375 C-5.09282227 20.89223633 -5.09282227 20.89223633 -5.08789062 19.44726562 C-5.07951172 18.45404297 -5.07113281 17.46082031 -5.0625 16.4375 C-5.05798828 15.44041016 -5.05347656 14.44332031 -5.04882812 13.41601562 C-5.03700007 10.94395151 -5.02051849 8.47200482 -5 6 C-6.32 6 -7.64 6 -9 6 C-9 4.35 -9 2.7 -9 1 C-5.77390955 -0.07536348 -3.37822416 -0.14375422 0 0 Z " fill="#211613" transform="translate(42,54)"/>
<path d="M0 0 C2.64 0 5.28 0 8 0 C8.04898437 0.99902344 8.09796875 1.99804688 8.1484375 3.02734375 C8.22320312 4.31769531 8.29796875 5.60804687 8.375 6.9375 C8.44460938 8.22527344 8.51421875 9.51304688 8.5859375 10.83984375 C8.72257813 11.88269531 8.85921875 12.92554688 9 14 C9.66 14.33 10.32 14.66 11 15 C9.35 15.66 7.7 16.32 6 17 C6 12.05 6 7.1 6 2 C5.01 2 4.02 2 3 2 C3 12.89 3 23.78 3 35 C3.99 35 4.98 35 6 35 C6 32.03 6 29.06 6 26 C6.66 25.67 7.32 25.34 8 25 C8.02687279 26.81242052 8.04633715 28.62495233 8.0625 30.4375 C8.07410156 31.44683594 8.08570313 32.45617187 8.09765625 33.49609375 C8 36 8 36 7 37 C4 37.125 4 37.125 1 37 C0 36 0 36 -0.11352539 32.58178711 C-0.11336628 31.06363012 -0.10767226 29.54546771 -0.09765625 28.02734375 C-0.0962413 27.22970108 -0.09482635 26.43205841 -0.09336853 25.61024475 C-0.08775316 23.05262565 -0.07519812 20.49509282 -0.0625 17.9375 C-0.05748698 16.20768355 -0.05292373 14.47786574 -0.04882812 12.74804688 C-0.03777875 8.49866447 -0.02050386 4.24934688 0 0 Z " fill="#362F2D" transform="translate(4,45)"/>
<path d="M0 0 C0.66 0.33 1.32 0.66 2 1 C2.02886537 5.31248609 2.04675255 9.62494762 2.0625 13.9375 C2.07087891 15.16919922 2.07925781 16.40089844 2.08789062 17.66992188 C2.09111328 18.83974609 2.09433594 20.00957031 2.09765625 21.21484375 C2.10289307 22.29886475 2.10812988 23.38288574 2.11352539 24.49975586 C2 27 2 27 1 28 C-1.5 28.125 -1.5 28.125 -4 28 C-5 27 -5 27 -5.11352539 24.95874023 C-5.10828857 24.08419189 -5.10305176 23.20964355 -5.09765625 22.30859375 C-5.09282227 20.89223633 -5.09282227 20.89223633 -5.08789062 19.44726562 C-5.07951172 18.45404297 -5.07113281 17.46082031 -5.0625 16.4375 C-5.05798828 15.44041016 -5.05347656 14.44332031 -5.04882812 13.41601562 C-5.03700007 10.94395151 -5.02051849 8.47200482 -5 6 C-4.34 6 -3.68 6 -3 6 C-3 12.6 -3 19.2 -3 26 C-2.01 25.67 -1.02 25.34 0 25 C0.33 17.41 0.66 9.82 1 2 C-1.97 2 -4.94 2 -8 2 C-8.33 3.32 -8.66 4.64 -9 6 C-9 4.35 -9 2.7 -9 1 C-5.77390955 -0.07536348 -3.37822416 -0.14375422 0 0 Z " fill="#050000" transform="translate(72,54)"/>
<path d="M0 0 C1.98 0 3.96 0 6 0 C4.68 0.33 3.36 0.66 2 1 C2 8.92 2 16.84 2 25 C3.32 25 4.64 25 6 25 C6 18.73 6 12.46 6 6 C6.66 5.67 7.32 5.34 8 5 C7.67 12.26 7.34 19.52 7 27 C5.02 27 3.04 27 1 27 C0 26 0 26 -0.11352539 23.49975586 C-0.10828857 22.41573486 -0.10305176 21.33171387 -0.09765625 20.21484375 C-0.09443359 19.04501953 -0.09121094 17.87519531 -0.08789062 16.66992188 C-0.07951172 15.43822266 -0.07113281 14.20652344 -0.0625 12.9375 C-0.05798828 11.70193359 -0.05347656 10.46636719 -0.04882812 9.19335938 C-0.03699608 6.12885883 -0.02051173 3.06445279 0 0 Z " fill="#000000" transform="translate(80,55)"/>
<path d="M0 0 C0.66 0 1.32 0 2 0 C2.02887814 3.47914941 2.04675687 6.95826831 2.0625 10.4375 C2.07087891 11.43072266 2.07925781 12.42394531 2.08789062 13.44726562 C2.09111328 14.39150391 2.09433594 15.33574219 2.09765625 16.30859375 C2.10289307 17.18314209 2.10812988 18.05769043 2.11352539 18.95874023 C2 21 2 21 1 22 C-1.5 22.125 -1.5 22.125 -4 22 C-5 21 -5 21 -5.11352539 19.23413086 C-5.10828857 18.48526611 -5.10305176 17.73640137 -5.09765625 16.96484375 C-5.09443359 16.15595703 -5.09121094 15.34707031 -5.08789062 14.51367188 C-5.07951172 13.66353516 -5.07113281 12.81339844 -5.0625 11.9375 C-5.05798828 11.08349609 -5.05347656 10.22949219 -5.04882812 9.34960938 C-5.03700373 7.23304337 -5.01906769 5.11651315 -5 3 C-4.34 3 -3.68 3 -3 3 C-3 8.61 -3 14.22 -3 20 C-2.01 20 -1.02 20 0 20 C0 13.4 0 6.8 0 0 Z " fill="#080000" transform="translate(116,60)"/>
<path d="M0 0 C0.33 0 0.66 0 1 0 C1.02886984 3.97915159 1.04675406 7.95827653 1.0625 11.9375 C1.07087891 13.07380859 1.07925781 14.21011719 1.08789062 15.38085938 C1.09111328 16.46044922 1.09433594 17.54003906 1.09765625 18.65234375 C1.10289307 19.65257568 1.10812988 20.65280762 1.11352539 21.68334961 C1 24 1 24 0 25 C-2.5 25.125 -2.5 25.125 -5 25 C-6 24 -6 24 -6.11352539 21.95874023 C-6.10828857 21.08419189 -6.10305176 20.20964355 -6.09765625 19.30859375 C-6.09443359 18.36435547 -6.09121094 17.42011719 -6.08789062 16.44726562 C-6.07951172 15.45404297 -6.07113281 14.46082031 -6.0625 13.4375 C-6.05798828 12.44041016 -6.05347656 11.44332031 -6.04882812 10.41601562 C-6.03700007 7.94395151 -6.02051849 5.47200482 -6 3 C-5.34 3 -4.68 3 -4 3 C-4 9.6 -4 16.2 -4 23 C-2.68 23 -1.36 23 0 23 C0 15.41 0 7.82 0 0 Z " fill="#030101" transform="translate(43,57)"/>
<path d="M0 0 C0.66 0.33 1.32 0.66 2 1 C-2.74554637 5.71502838 -7.30945509 8.85826879 -14 10 C-16.80818495 9.94402289 -19.22850995 9.55429801 -22 9 C-17.63992254 6.60142438 -12.95207013 5.46021011 -8.19140625 4.09765625 C-4.96721158 3.11533469 -4.96721158 3.11533469 -2.21484375 1.30859375 C-1.48394531 0.87675781 -0.75304687 0.44492188 0 0 Z " fill="#EA7528" transform="translate(125,98)"/>
<path d="M0 0 C0.66 0.33 1.32 0.66 2 1 C1.67 9.25 1.34 17.5 1 26 C0.67 26 0.34 26 0 26 C0 18.08 0 10.16 0 2 C-1.98 2 -3.96 2 -6 2 C-5.67 3.32 -5.34 4.64 -5 6 C-6.32 6 -7.64 6 -9 6 C-9 4.35 -9 2.7 -9 1 C-5.77390955 -0.07536348 -3.37822416 -0.14375422 0 0 Z " fill="#17100B" transform="translate(42,54)"/>
<path d="M0 0 C0.33 0 0.66 0 1 0 C1.02887814 3.47914941 1.04675687 6.95826831 1.0625 10.4375 C1.07087891 11.43072266 1.07925781 12.42394531 1.08789062 13.44726562 C1.09111328 14.39150391 1.09433594 15.33574219 1.09765625 16.30859375 C1.10289307 17.18314209 1.10812988 18.05769043 1.11352539 18.95874023 C1 21 1 21 0 22 C-1.99958364 22.04080783 -4.00045254 22.04254356 -6 22 C-5.67 21.34 -5.34 20.68 -5 20 C-3.68 20 -2.36 20 -1 20 C-1.00523682 19.42967041 -1.01047363 18.85934082 -1.01586914 18.27172852 C-1.03658221 15.70199677 -1.0496419 13.13228253 -1.0625 10.5625 C-1.07087891 9.66466797 -1.07925781 8.76683594 -1.08789062 7.84179688 C-1.09111328 6.98779297 -1.09433594 6.13378906 -1.09765625 5.25390625 C-1.10289307 4.46314697 -1.10812988 3.6723877 -1.11352539 2.85766602 C-1 1 -1 1 0 0 Z " fill="#010000" transform="translate(102,60)"/>
<path d="M0 0 C1.9375 0.8125 1.9375 0.8125 4 2 C4.33 2.99 4.66 3.98 5 5 C4.01 6.485 4.01 6.485 3 8 C0.375 8.1875 0.375 8.1875 -2 8 C-2.66 6.35 -3.32 4.7 -4 3 C-2.68 2.01 -1.36 1.02 0 0 Z " fill="#120A09" transform="translate(40,44)"/>
<path d="M0 0 C1.9375 0.8125 1.9375 0.8125 4 2 C4.33 2.99 4.66 3.98 5 5 C4.01 6.485 4.01 6.485 3 8 C0.4375 8.25 0.4375 8.25 -2 8 C-3 7 -3 7 -3.25 4.5625 C-3.1675 3.716875 -3.085 2.87125 -3 2 C-2.01 1.34 -1.02 0.68 0 0 Z " fill="#100907" transform="translate(70,44)"/>
<path d="M0 0 C3.63289014 3.44838259 6.53888259 6.95673881 9.3125 11.125 C10.00988281 12.15882812 10.70726562 13.19265625 11.42578125 14.2578125 C13 17 13 17 13 20 C10.69 20 8.38 20 6 20 C6 19.34 6 18.68 6 18 C7.32 17.67 8.64 17.34 10 17 C9.278125 15.94039062 8.55625 14.88078125 7.8125 13.7890625 C6.87475838 12.4012049 5.93727152 11.01317512 5 9.625 C4.52304687 8.92632812 4.04609375 8.22765625 3.5546875 7.5078125 C2.87792969 6.50234375 2.87792969 6.50234375 2.1875 5.4765625 C1.76855469 4.85861816 1.34960938 4.24067383 0.91796875 3.60400391 C0 2 0 2 0 0 Z " fill="#020100" transform="translate(20,62)"/>
<path d="M0 0 C0.66 0.66 1.32 1.32 2 2 C3.32 1.34 4.64 0.68 6 0 C5 3 5 3 2 5 C0.68 5 -0.64 5 -2 5 C-2 4.34 -2 3.68 -2 3 C-5.51005335 4.6380249 -8.45543849 6.03134491 -11 9 C-11.66 8.34 -12.32 7.68 -13 7 C-11.54261898 6.01941648 -10.08406325 5.04057868 -8.625 4.0625 C-7.81289062 3.51722656 -7.00078125 2.97195312 -6.1640625 2.41015625 C-2.46537396 0 -2.46537396 0 0 0 Z " fill="#EC6B18" transform="translate(76,26)"/>
<path d="M0 0 C0.66 0 1.32 0 2 0 C2.04898437 0.92683594 2.09796875 1.85367188 2.1484375 2.80859375 C2.22320312 4.00613281 2.29796875 5.20367187 2.375 6.4375 C2.44460938 7.63246094 2.51421875 8.82742187 2.5859375 10.05859375 C2.72257813 11.02925781 2.85921875 11.99992187 3 13 C3.66 13.33 4.32 13.66 5 14 C3.35 14.66 1.7 15.32 0 16 C0 10.72 0 5.44 0 0 Z " fill="#060000" transform="translate(10,46)"/>
<path d="M0 0 C10.55808656 -0.55353075 10.55808656 -0.55353075 15 3 C14.67 4.32 14.34 5.64 14 7 C13.54625 6.360625 13.0925 5.72125 12.625 5.0625 C8.74986164 2.01774843 4.8077353 2.18350135 0 2 C0 1.34 0 0.68 0 0 Z " fill="#0A0403" transform="translate(128,54)"/>
<path d="M0 0 C0.33 0 0.66 0 1 0 C1.02687279 1.81242052 1.04633715 3.62495233 1.0625 5.4375 C1.07410156 6.44683594 1.08570313 7.45617187 1.09765625 8.49609375 C1 11 1 11 0 12 C-1.99958364 12.04080783 -4.00045254 12.04254356 -6 12 C-5.67 11.34 -5.34 10.68 -5 10 C-3.68 10 -2.36 10 -1 10 C-1.01160156 9.36191406 -1.02320313 8.72382812 -1.03515625 8.06640625 C-1.04417969 7.24011719 -1.05320312 6.41382812 -1.0625 5.5625 C-1.07410156 4.73878906 -1.08570313 3.91507812 -1.09765625 3.06640625 C-1 1 -1 1 0 0 Z " fill="#040000" transform="translate(11,70)"/>
<path d="M0 0 C0 3.53986194 -0.58152803 4.49515403 -3 7 C-4.32 7 -5.64 7 -7 7 C-6.814375 6.38125 -6.62875 5.7625 -6.4375 5.125 C-5.76313824 2.95839822 -5.76313824 2.95839822 -7 1 C-6.01 1 -5.02 1 -4 1 C-4 1.66 -4 2.32 -4 3 C-2.68 2.01 -1.36 1.02 0 0 Z " fill="#ED680F" transform="translate(96,26)"/>
<path d="M0 0 C0.66 0 1.32 0 2 0 C2.5625 1.9375 2.5625 1.9375 3 4 C2 5 2 5 -0.375 5.25 C-3 5 -3 5 -4.8125 3.5 C-5.204375 3.005 -5.59625 2.51 -6 2 C-4 2 -2 2 0 2 C0 1.34 0 0.68 0 0 Z " fill="#0A0504" transform="translate(144,77)"/>
<path d="M0 0 C5.53846154 -0.36923077 5.53846154 -0.36923077 7.875 1.5 C8.24625 1.995 8.6175 2.49 9 3 C7.02 3.99 7.02 3.99 5 5 C3.35 3.35 1.7 1.7 0 0 Z " fill="#EB7224" transform="translate(107,25)"/>
<path d="M0 0 C0.66 0.99 1.32 1.98 2 3 C-1.98196457 4.05404945 -4.98195309 3.84098656 -9 3 C-6.03312999 1.35173889 -3.34373475 0.55728913 0 0 Z " fill="#E96910" transform="translate(112,104)"/>
<path d="M0 0 C0.33 0.66 0.66 1.32 1 2 C3.02463255 2.65213292 3.02463255 2.65213292 5 3 C2.69 3.66 0.38 4.32 -2 5 C-2 4.01 -2 3.02 -2 2 C-1.34 2 -0.68 2 0 2 C0 1.34 0 0.68 0 0 Z " fill="#EC6D1F" transform="translate(42,34)"/>
</svg>